<svg width="92" height="103" viewBox="0 0 92 103" fill="none" xmlns="http://www.w3.org/2000/svg">
<g filter="url(#filter0_d_72_531)">
<path d="M58.8575 43.4303C58.8575 46.2103 56.8067 48.4889 54.209 48.4889C51.657 48.4889 49.5606 46.2103 49.5606 43.4303C49.5606 40.6504 51.6114 38.3718 54.209 38.3718C56.8067 38.3718 58.8575 40.6504 58.8575 43.4303ZM37.575 38.3718C34.9773 38.3718 32.9266 40.6504 32.9266 43.4303C32.9266 46.2103 35.0229 48.4889 37.575 48.4889C40.1726 48.4889 42.2234 46.2103 42.2234 43.4303C42.269 40.6504 40.1726 38.3718 37.575 38.3718ZM85.6998 9.52421V91.2817C74.2187 81.1357 77.8905 84.4942 64.554 72.0956L66.9694 80.5265H15.2899C10.1402 80.5265 5.94751 76.3338 5.94751 71.1386V9.52421C5.94751 4.32892 10.1402 0.13623 15.2899 0.13623H76.3574C81.5071 0.13623 85.6998 4.32892 85.6998 9.52421ZM72.7116 52.7272C72.7116 38.0527 66.1491 26.1583 66.1491 26.1583C59.5866 21.2364 53.3432 21.3731 53.3432 21.3731L52.7051 22.1023C60.4525 24.4721 64.0527 27.89 64.0527 27.89C53.2273 21.9569 40.5109 21.9558 30.0099 26.5684C28.3237 27.3432 27.3211 27.89 27.3211 27.89C27.3211 27.89 31.1037 24.2898 39.3068 21.92L38.851 21.3731C38.851 21.3731 32.6076 21.2364 26.0451 26.1583C26.0451 26.1583 19.4826 38.0527 19.4826 52.7272C19.4826 52.7272 23.3107 59.3352 33.3823 59.6542C33.3823 59.6542 35.0685 57.6035 36.4357 55.8717C30.6479 54.1399 28.4604 50.4941 28.4604 50.4941C29.1309 50.9634 30.2364 51.5717 30.3289 51.6334C38.0211 55.9411 48.9475 57.3524 58.7663 53.2285C60.3614 52.636 62.1387 51.7701 64.0072 50.5397C64.0072 50.5397 61.7285 54.2766 55.7585 55.9628C57.1257 57.6946 58.7663 59.6542 58.7663 59.6542C68.8379 59.3352 72.7116 52.7272 72.7116 52.7272Z" fill="#F29D38"/>
<path d="M40.7656 43.4064L40.7654 43.4184V43.4303C40.7654 45.5327 39.2454 47.0309 37.575 47.0309C35.9413 47.0309 34.3846 45.523 34.3846 43.4303C34.3846 41.3279 35.9046 39.8298 37.575 39.8298C39.2658 39.8298 40.7994 41.3456 40.7656 43.4064ZM65.0351 79.0686H15.2899C10.95 79.0686 7.4055 75.5332 7.4055 71.1386V9.52421C7.4055 5.12953 10.95 1.59422 15.2899 1.59422H76.3574C80.6973 1.59422 84.2418 5.12953 84.2418 9.52421V88.0492C80.6243 84.8573 78.9183 83.3619 77.2334 81.8431C74.923 79.7605 72.6524 77.6337 65.5468 71.0278L61.7094 67.4603L63.1524 72.4971L65.0351 79.0686ZM72.7116 52.7272L73.9694 53.4645L74.1696 53.123V52.7272C74.1696 45.1813 72.4841 38.3745 70.8102 33.469C69.9718 31.0121 69.1326 29.0211 68.5002 27.6394C68.184 26.9482 67.9191 26.4087 67.7315 26.0387C67.6376 25.8536 67.5631 25.7109 67.5111 25.6127C67.4851 25.5636 67.4647 25.5257 67.4503 25.4991L67.4333 25.4679L67.4283 25.4587L67.4267 25.4558L67.4261 25.4547C67.4259 25.4543 67.4257 25.4539 66.1491 26.1583L67.4257 25.4539L67.2744 25.1798L67.0239 24.9919C63.5574 22.392 60.1668 21.1224 57.6308 20.5036C56.363 20.1942 55.3065 20.0468 54.5565 19.977C54.1813 19.942 53.8822 19.9264 53.6709 19.9196C53.5652 19.9162 53.4814 19.9151 53.421 19.9148C53.3908 19.9147 53.3665 19.9148 53.3481 19.9149L53.3251 19.9152L53.317 19.9154L53.3138 19.9154L53.3125 19.9155C53.3119 19.9155 53.3114 19.9155 53.33 20.7692C53.33 20.7692 53.3299 20.7692 53.3299 20.7692L53.3112 19.9155L52.6689 19.9295L52.2459 20.413L51.6079 21.1422L50.7641 22.1066C47.6064 21.7146 44.431 21.704 41.313 22.05L40.4268 20.9866L39.9711 20.4397L39.5463 19.93L38.8829 19.9155L38.8695 20.5287C38.8695 20.5287 38.8694 20.5287 38.8694 20.5287C38.8826 19.9155 38.8822 19.9155 38.8817 19.9155L38.8803 19.9154L38.8772 19.9154L38.8691 19.9152L38.8461 19.9149C38.837 19.9149 38.8265 19.9148 38.8144 19.9148C38.8022 19.9147 38.7884 19.9147 38.7731 19.9148C38.7127 19.9151 38.629 19.9162 38.5233 19.9196C38.312 19.9264 38.0129 19.942 37.6377 19.977C36.8877 20.0468 35.8312 20.1942 34.5633 20.5036C32.0274 21.1224 28.6368 22.392 25.1703 24.9919L24.9198 25.1798L24.7685 25.4539L26.0451 26.1583C24.7685 25.4539 24.7683 25.4543 24.7681 25.4547L24.7675 25.4558L24.7659 25.4587L24.7609 25.4679L24.7439 25.4991C24.7295 25.5257 24.7091 25.5636 24.6831 25.6127C24.6311 25.7109 24.5565 25.8536 24.4627 26.0387C24.2751 26.4087 24.0102 26.9482 23.6939 27.6394C23.0616 29.0211 22.2223 31.0121 21.384 33.469C19.71 38.3745 18.0246 45.1813 18.0246 52.7272V53.119L18.221 53.458L19.4826 52.7272C18.221 53.458 18.2214 53.4587 18.2219 53.4595L18.2228 53.4611L18.225 53.4648L18.2303 53.4739L18.2456 53.4994C18.2497 53.5062 18.2542 53.5137 18.2592 53.5219C18.269 53.5379 18.2806 53.5566 18.294 53.5778C18.3343 53.6419 18.3909 53.7292 18.4644 53.8364C18.6113 54.0506 18.8263 54.3451 19.1144 54.6936C19.6902 55.3901 20.5618 56.3069 21.7708 57.2299C24.2014 59.0856 27.9642 60.9413 33.3361 61.1115L34.053 61.1342L34.5085 60.5802L33.3823 59.6542L34.5085 60.5802L34.5086 60.5801L34.5089 60.5798L34.5098 60.5786L34.5136 60.574L34.5283 60.5562L34.5846 60.4875L34.7956 60.23C34.9758 60.0096 35.2304 59.6979 35.5279 59.3318C36.1221 58.6004 36.8903 57.6488 37.58 56.7751L38.0574 56.1704C43.1008 57.3797 48.6685 57.5376 54.1335 56.2574L54.6142 56.8663C55.3064 57.7431 56.0653 58.6744 56.6491 59.3842C56.9415 59.7396 57.1909 60.0406 57.3673 60.2529C57.4555 60.359 57.5256 60.4431 57.5737 60.5007L57.6289 60.5668L57.6433 60.5841L57.647 60.5885L57.648 60.5897L57.6483 60.59L57.6483 60.5901L58.7663 59.6542L57.6484 60.5902L58.1036 61.1339L58.8125 61.1115C64.184 60.9414 67.9571 59.086 70.3977 57.2321C71.6119 56.3098 72.489 55.3939 73.0689 54.6982C73.3591 54.35 73.5758 54.0559 73.724 53.8419C73.7981 53.7349 73.8552 53.6478 73.8959 53.5839C73.9162 53.5519 73.9324 53.5257 73.9447 53.5057L73.96 53.4803L73.9654 53.4712L73.9676 53.4676L73.9685 53.466C73.969 53.4652 73.9694 53.4645 72.7116 52.7272ZM57.3995 43.4303C57.3995 45.5327 55.8795 47.0309 54.209 47.0309C52.5753 47.0309 51.0186 45.523 51.0186 43.4303C51.0186 41.3279 52.5386 39.8298 54.209 39.8298C55.8795 39.8298 57.3995 41.3279 57.3995 43.4303Z" stroke="#AB640F" stroke-width="2.91599"/>
</g>
<defs>
<filter id="filter0_d_72_531" x="0.115532" y="0.13623" width="91.4162" height="102.809" filterUnits="userSpaceOnUse" color-interpolation-filters="sRGB">
<feFlood flood-opacity="0" result="BackgroundImageFix"/>
<feColorMatrix in="SourceAlpha" type="matrix" values="0 0 0 0 0 0 0 0 0 0 0 0 0 0 0 0 0 0 127 0" result="hardAlpha"/>
<feOffset dy="5.83198"/>
<feGaussianBlur stdDeviation="2.91599"/>
<feComposite in2="hardAlpha" operator="out"/>
<feColorMatrix type="matrix" values="0 0 0 0 0 0 0 0 0 0 0 0 0 0 0 0 0 0 0.25 0"/>
<feBlend mode="normal" in2="BackgroundImageFix" result="effect1_dropShadow_72_531"/>
<feBlend mode="normal" in="SourceGraphic" in2="effect1_dropShadow_72_531" result="shape"/>
</filter>
</defs>
</svg>
