<svg width="92" height="92" viewBox="0 0 92 92" fill="none" xmlns="http://www.w3.org/2000/svg">
<g filter="url(#filter0_d_72_530)">
<path d="M45.8239 0.12207C23.7955 0.12207 5.94775 17.9699 5.94775 39.9982C5.94775 62.0266 23.7955 79.8744 45.8239 79.8744C67.8523 79.8744 85.7 62.0266 85.7 39.9982C85.7 17.9699 67.8523 0.12207 45.8239 0.12207ZM65.4082 27.4404L58.864 58.2801C58.3817 60.4669 57.0793 60.9975 55.2623 59.9684L45.2933 52.6203L40.4856 57.2511C39.955 57.7817 39.5048 58.2319 38.4758 58.2319L39.1832 48.086L57.6581 31.3959C58.4621 30.6884 57.4812 30.2864 56.42 30.9939L33.5877 45.3686L23.7473 42.2975C21.6088 41.6222 21.5606 40.159 24.1975 39.1299L62.6426 24.305C64.4274 23.6619 65.9871 24.7392 65.4082 27.4404Z" fill="#F29D38"/>
<path d="M34.3645 46.6025L48.505 37.6999L38.2059 47.0041L37.7697 47.3982L37.7288 47.9846L37.0213 58.1305L36.9126 59.6899H38.4758C39.2267 59.6899 39.853 59.5193 40.4007 59.2007C40.8754 58.9246 41.2383 58.5609 41.4807 58.318C41.4896 58.3091 41.4984 58.3003 41.507 58.2916L45.4186 54.5239L54.3973 61.1421L54.4677 61.194L54.5438 61.2371C55.6234 61.8485 56.931 62.2168 58.1647 61.6586C59.3935 61.1026 60.006 59.872 60.2878 58.5942L60.2879 58.5942L60.2903 58.5828L66.8339 27.7459C67.178 26.1398 66.9725 24.5904 65.9291 23.5741C64.8685 22.5412 63.3869 22.487 62.1483 22.9334L62.1331 22.9388L62.1181 22.9447L23.6729 37.7696L23.6675 37.7717C22.9122 38.0664 22.2543 38.4271 21.7517 38.8687C21.2569 39.3034 20.7983 39.923 20.7291 40.7203C20.6558 41.5641 21.0463 42.255 21.546 42.7247C22.025 43.175 22.6521 43.4806 23.3083 43.6879L23.3129 43.6893L33.1533 46.7604L33.7954 46.9608L34.3645 46.6025ZM7.40575 39.9982C7.40575 18.7751 24.6008 1.58006 45.8239 1.58006C67.047 1.58006 84.2421 18.7751 84.2421 39.9982C84.2421 61.2213 67.047 78.4164 45.8239 78.4164C24.6008 78.4164 7.40575 61.2213 7.40575 39.9982Z" stroke="#AB640F" stroke-width="2.91599"/>
</g>
<defs>
<filter id="filter0_d_72_530" x="0.115776" y="0.12207" width="91.4162" height="91.4164" filterUnits="userSpaceOnUse" color-interpolation-filters="sRGB">
<feFlood flood-opacity="0" result="BackgroundImageFix"/>
<feColorMatrix in="SourceAlpha" type="matrix" values="0 0 0 0 0 0 0 0 0 0 0 0 0 0 0 0 0 0 127 0" result="hardAlpha"/>
<feOffset dy="5.83198"/>
<feGaussianBlur stdDeviation="2.91599"/>
<feComposite in2="hardAlpha" operator="out"/>
<feColorMatrix type="matrix" values="0 0 0 0 0 0 0 0 0 0 0 0 0 0 0 0 0 0 0.25 0"/>
<feBlend mode="normal" in2="BackgroundImageFix" result="effect1_dropShadow_72_530"/>
<feBlend mode="normal" in="SourceGraphic" in2="effect1_dropShadow_72_530" result="shape"/>
</filter>
</defs>
</svg>
