<svg width="92" height="92" viewBox="0 0 92 92" fill="none" xmlns="http://www.w3.org/2000/svg">
<g filter="url(#filter0_d_72_532)">
<path d="M77.1549 0.0649414H14.4924C9.77491 0.0649414 5.94751 3.89234 5.94751 8.60983V71.2723C5.94751 75.9898 9.77491 79.8172 14.4924 79.8172H77.1549C81.8724 79.8172 85.6998 75.9898 85.6998 71.2723V8.60983C85.6998 3.89234 81.8724 0.0649414 77.1549 0.0649414ZM68.4498 28.3343C68.4854 28.8327 68.4854 29.349 68.4854 29.8474C68.4854 45.2816 56.7362 63.0657 35.2672 63.0657C28.6449 63.0657 22.5032 61.1431 17.3407 57.8319C18.2842 57.9388 19.1921 57.9744 20.1534 57.9744C25.6186 57.9744 30.6387 56.123 34.6441 52.9898C29.5172 52.883 25.2091 49.5185 23.7316 44.89C25.5295 45.157 27.1495 45.157 29.0009 44.6764C23.6604 43.5905 19.6549 38.8908 19.6549 33.212V33.0696C21.2037 33.9419 23.0195 34.4759 24.9243 34.5471C23.3229 33.4819 22.0101 32.0368 21.1031 30.3408C20.196 28.6448 19.723 26.7506 19.7261 24.8273C19.7261 22.6555 20.2958 20.6617 21.3105 18.9349C27.0605 26.02 35.6944 30.6485 45.3786 31.147C43.723 23.2251 49.6511 16.7987 56.7718 16.7987C60.1363 16.7987 63.1627 18.205 65.2989 20.4837C67.9335 19.9852 70.4614 19.0061 72.7044 17.671C71.8322 20.3769 69.9986 22.6555 67.5775 24.0974C69.9274 23.8482 72.206 23.1895 74.3066 22.2817C72.7222 24.6137 70.7284 26.6787 68.4498 28.3343Z" fill="#F29D38"/>
<path d="M18.2681 24.8261C18.2684 22.393 18.9084 20.1449 20.0535 18.1962L21.1182 16.3843L22.4426 18.0161C27.586 24.3539 35.1433 28.6356 43.6805 29.5505C43.0694 21.5712 49.3437 15.3407 56.7718 15.3407C60.2528 15.3407 63.4173 16.6826 65.7726 18.8959C67.9665 18.3963 70.0703 17.5422 71.9587 16.4181L75.2769 14.443L74.0921 18.1183C73.7075 19.3114 73.1571 20.4303 72.4662 21.4475C72.8927 21.2909 73.3137 21.1224 73.7282 20.9433L78.3297 18.9545L75.5126 23.101C73.9825 25.3532 72.0919 27.3706 69.9383 29.0398C69.9434 29.3136 69.9434 29.5788 69.9434 29.8245V29.8474C69.9434 45.9089 57.7085 64.5237 35.2672 64.5237C28.358 64.5237 21.9443 62.5167 16.5536 59.0592L17.5047 56.3832C18.3785 56.4821 19.229 56.5164 20.1534 56.5164C24.0089 56.5164 27.6252 55.5356 30.7793 53.8002C26.7753 52.4952 23.6204 49.3362 22.3426 45.3334L21.6309 43.104L22.8817 43.2898C20.0154 40.8808 18.1969 37.2681 18.1969 33.212V33.0696V30.5751L20.2068 31.707C20.0705 31.4851 19.9406 31.2588 19.8174 31.0284C18.797 29.1205 18.2648 26.9897 18.2681 24.8261ZM18.2681 24.8261C18.2681 24.8257 18.2681 24.8253 18.2681 24.8249L19.7261 24.8273H18.2681C18.2681 24.8269 18.2681 24.8265 18.2681 24.8261ZM20.5997 20.3627C20.8038 19.8691 21.0415 19.3926 21.3105 18.9349M20.5997 20.3627L22.3199 20.1204C21.9743 19.7334 21.6378 19.3381 21.3105 18.9349M20.5997 20.3627C20.4577 20.1944 20.3172 20.0247 20.1784 19.8537L21.3105 18.9349M20.5997 20.3627L21.3105 18.9349M14.4924 1.52294H77.1549C81.0672 1.52294 84.2418 4.69757 84.2418 8.60983V71.2723C84.2418 75.1846 81.0672 78.3592 77.1549 78.3592H14.4924C10.5801 78.3592 7.4055 75.1846 7.4055 71.2723V8.60983C7.4055 4.69757 10.5801 1.52294 14.4924 1.52294Z" stroke="#AB640F" stroke-width="2.91599"/>
</g>
<defs>
<filter id="filter0_d_72_532" x="0.115532" y="0.0649414" width="91.4162" height="91.4164" filterUnits="userSpaceOnUse" color-interpolation-filters="sRGB">
<feFlood flood-opacity="0" result="BackgroundImageFix"/>
<feColorMatrix in="SourceAlpha" type="matrix" values="0 0 0 0 0 0 0 0 0 0 0 0 0 0 0 0 0 0 127 0" result="hardAlpha"/>
<feOffset dy="5.83198"/>
<feGaussianBlur stdDeviation="2.91599"/>
<feComposite in2="hardAlpha" operator="out"/>
<feColorMatrix type="matrix" values="0 0 0 0 0 0 0 0 0 0 0 0 0 0 0 0 0 0 0.25 0"/>
<feBlend mode="normal" in2="BackgroundImageFix" result="effect1_dropShadow_72_532"/>
<feBlend mode="normal" in="SourceGraphic" in2="effect1_dropShadow_72_532" result="shape"/>
</filter>
</defs>
</svg>
